<?xml version="1.0" encoding="UTF-8"?>
<svg xmlns="http://www.w3.org/2000/svg" xmlns:xlink="http://www.w3.org/1999/xlink" viewBox="0 0 50 50" width="50px" height="50px">
<g id="surface14543217">
<path style=" stroke:none;fill-rule:nonzero;fill:rgb(36.470589%,40.000001%,57.647061%);fill-opacity:1;" d="M 25 11.199219 C 11.195312 11.199219 0 17.082031 0 24.347656 C 0 31.613281 11.195312 37.496094 25 37.496094 C 38.804688 37.496094 50 31.613281 50 24.347656 C 50 17.082031 38.804688 11.199219 25 11.199219 Z M 25 12.511719 C 38.390625 12.511719 48.6875 18.152344 48.6875 24.347656 C 48.6875 30.542969 38.382812 36.183594 25 36.183594 C 11.609375 36.183594 1.3125 30.542969 1.3125 24.347656 C 1.3125 18.152344 11.617188 12.511719 25 12.511719 Z M 21.964844 15.117188 L 19.4375 28.148438 L 22.257812 28.148438 L 23.710938 20.683594 C 26.007812 20.683594 26.957031 20.589844 27.375 21.039062 C 27.808594 21.503906 27.585938 22.011719 26.394531 28.148438 L 29.253906 28.148438 C 30.492188 21.804688 31.039062 20.457031 29.894531 19.40625 C 28.804688 18.402344 26.550781 18.578125 24.113281 18.578125 L 24.785156 15.117188 Z M 10.136719 18.589844 L 7.609375 31.628906 L 10.445312 31.628906 L 11.117188 28.164062 C 14.292969 28.164062 16.265625 28.394531 18.089844 26.6875 C 20.109375 24.832031 20.632812 21.53125 19.195312 19.878906 C 18.445312 19.011719 17.238281 18.589844 15.601562 18.589844 Z M 32.3125 18.589844 L 29.777344 31.628906 L 32.625 31.628906 L 33.292969 28.164062 C 36.632812 28.164062 38.480469 28.359375 40.269531 26.6875 C 42.285156 24.832031 42.8125 21.53125 41.371094 19.878906 C 40.621094 19.011719 39.414062 18.589844 37.777344 18.589844 Z M 14.585938 20.640625 C 16.359375 20.691406 17.375 21.066406 16.945312 23.292969 C 16.335938 26.425781 14.179688 26.101562 11.53125 26.101562 L 12.589844 20.644531 C 13.324219 20.644531 13.996094 20.625 14.585938 20.640625 Z M 36.765625 20.640625 C 38.539062 20.691406 39.542969 21.066406 39.113281 23.292969 C 38.496094 26.46875 36.277344 26.101562 33.699219 26.101562 L 34.757812 20.644531 C 35.496094 20.644531 36.171875 20.625 36.765625 20.640625 Z M 36.765625 20.640625 "/>
</g>
</svg>
